<svg xmlns="http://www.w3.org/2000/svg" xmlns:xlink="http://www.w3.org/1999/xlink" version="1.1" x="0px" y="0px" viewBox="0 0 100 125" enable-background="new 0 0 100 100" xml:space="preserve"><path d="M99.207,50.077c0,27.06-21.934,49.001-49.001,49.001c-27.064,0-48.995-21.941-48.995-49.001  C1.211,23.02,23.142,1.08,50.206,1.08C77.273,1.08,99.207,23.02,99.207,50.077L99.207,50.077z M35.417,19.477  c0-0.438-0.349-0.804-0.8-0.804h-0.358c-0.438,0-0.801,0.365-0.801,0.804v16.077c0,1.822,1.475,3.304,3.304,3.304  c0.685,0,1.245,0.551,1.245,1.238v42.3c0,0.688,0.555,1.248,1.249,1.248h3.077c0.685,0,1.242-0.561,1.242-1.248v-42.3  c0-0.688,0.558-1.238,1.248-1.238c1.82,0,3.308-1.481,3.308-3.304V19.477c0-0.438-0.358-0.804-0.801-0.804h-0.371  c-0.436,0-0.791,0.365-0.791,0.804v9.124c0,0.448-0.361,0.801-0.8,0.801h-0.671c-0.451,0-0.804-0.353-0.804-0.801v-9.124  c0-0.438-0.361-0.804-0.8-0.804h-0.362c-0.448,0-0.8,0.365-0.8,0.804v9.124c0,0.448-0.362,0.801-0.797,0.801h-0.678  c-0.438,0-0.803-0.353-0.803-0.801v-9.124c0-0.438-0.362-0.804-0.801-0.804h-0.361c-0.448,0-0.797,0.365-0.797,0.804v9.124  c0,0.448-0.365,0.801-0.801,0.801h-0.677c-0.436,0-0.801-0.353-0.801-0.801V19.477 M57.132,26.679  c-0.136,0.202-0.209,0.441-0.209,0.687v32.589c0,0.68,0.564,1.242,1.245,1.242h1.026v21.199c0,0.688,0.558,1.248,1.241,1.248h3.085  c0.688,0,1.248-0.561,1.248-1.248V17.76c0-0.441-0.361-0.793-0.8-0.793c-0.27,0-0.524,0.129-0.671,0.358L57.132,26.679"/><text x="0" y="115" fill="#000000" font-size="5px" font-weight="bold" font-family="'Helvetica Neue', Helvetica, Arial-Unicode, Arial, Sans-serif">Created by Aldric Rodríguez</text><text x="0" y="120" fill="#000000" font-size="5px" font-weight="bold" font-family="'Helvetica Neue', Helvetica, Arial-Unicode, Arial, Sans-serif">from the Noun Project</text></svg>